<?xml version="1.0" encoding="utf-8"?>
<svg width="444.8462px" height="465.56055px" viewBox="0 0 444.8462 465.56055" version="1.1" xmlns:xlink="http://www.w3.org/1999/xlink" xmlns="http://www.w3.org/2000/svg">
  <g id="Group">
    <g id="image_adobe_express">
      <path d="M65.2417 432.762C63.4329 441.889 61.6492 450.336 59.8603 458.807C41.0603 461.603 25.8452 446.739 22.6252 431.5C21.3287 425.364 22.8784 418.448 23.9551 412.025C26.5766 396.388 29.7875 380.849 32.4632 365.22C32.8347 363.05 31.7457 360.512 30.9536 358.279C22.4879 334.415 13.4183 310.749 5.55271 286.69C-5.29522 253.508 -0.12796 222.299 19.9963 193.836C28.185 182.254 37.1221 171.186 46.0399 160.143C49.5166 155.838 53.7615 153.994 59.9424 156.535C66.3969 159.189 68.3774 163.109 68.449 169.662C68.6431 187.444 69.6187 205.217 69.779 222.998C69.8751 233.647 77.8574 237.319 85.1405 241.114C97.3142 247.458 109.963 252.89 122.412 258.706C123.029 258.09 123.647 257.474 124.264 256.858C122.534 254.736 121.017 252.387 119.037 250.531C109.254 241.361 99.371 232.3 89.4815 223.245C81.8079 216.22 85.9081 207.615 86.9989 199.923C88.6234 188.47 91.5555 177.165 94.4995 165.947C96.7523 157.362 107.431 154.379 112.999 161.235C120.783 170.819 126.792 181.832 134.424 191.555C141.757 200.898 149.007 211.062 158.495 217.731C166.987 223.7 178.335 225.909 188.685 228.86C203.625 233.119 218.797 236.568 233.882 240.314C235.846 240.801 237.882 241 241.106 241.536C236.2 231.901 227.769 231.225 220.448 229.08C204.439 224.391 187.921 221.84 173.316 212.466C156.489 201.665 145.929 186.443 139.163 168.468C134.943 157.255 132.137 145.369 130.092 133.544C129.233 128.58 131.021 122.526 133.313 117.793C136.885 110.414 144.649 110.319 152.161 117.309C156.554 121.395 160.149 126.339 164.634 131.509C167.609 129.234 170.597 127.46 172.937 125.055C178.219 119.624 183.383 114.05 188.229 108.229C197.607 96.9627 196.196 83.967 184.249 74.1245C164.94 58.2167 151.981 59.9187 133.58 76.0405C124.322 84.1522 117.589 95.1553 109.767 104.894C100.817 116.039 89.702 124.454 75.1549 124.3C62.4145 124.166 50.7544 118.683 40.8736 110.215C36.862 106.777 32.7209 103.465 28.9531 99.7751C24.283 95.2013 24.0023 90.191 28.6499 85.2963C56.5999 55.8608 87.1607 30.3245 125.812 15.4875C156.941 3.53809 188.814 -1.06089 221.96 0.202334C253.9 1.41964 284.558 7.78497 313.068 22.2161C340.502 36.103 365.054 54.3106 385.476 77.4265C407.117 101.923 423.51 129.556 434.035 160.773C444.459 191.689 446.244 223.528 443.977 255.391C441.81 285.87 434.257 315.631 418.082 342.048C408.01 358.497 396.56 374.259 384.367 389.22C363.729 414.542 337.09 432.483 307.665 446.065C290.192 454.131 272.031 460.963 252.526 462.195C230.301 463.599 208.039 464.459 185.782 465.249C180.822 465.425 175.806 464.4 170.84 463.744C169.849 463.613 168.608 462.864 168.091 462.025C157.867 445.429 146.839 429.242 137.855 411.992C130.426 397.728 142.39 382.958 154.91 379.454C171.975 374.677 189.146 370.277 206.225 365.549C212.135 363.913 217.892 361.732 223.746 359.886C233.354 356.857 238.241 350.561 238.832 340.298C239.313 331.951 240.918 323.67 242.317 313.164C238.792 316.099 236.999 317.652 235.144 319.127C221.27 330.157 206.882 326.355 193.238 319.405C180.342 312.837 168.125 304.889 155.879 297.123C153.076 295.345 150.641 292.146 149.299 289.053C143.919 276.658 132.113 273.806 121.41 268.761C102.961 260.065 84.7387 250.828 66.9045 240.946C63.646 239.14 61.4724 233.343 60.9139 229.109C59.6281 219.362 59.43 209.448 59.1895 199.592C58.9318 189.035 59.1315 178.465 59.1315 167.901C57.9288 167.412 56.7262 166.922 55.5235 166.433C52.2349 170.038 48.7688 173.498 45.6883 177.273C32.5101 193.421 20.0161 210.133 14.0657 230.44C9.54142 245.879 8.23733 261.345 14.0973 277.315C23.5817 303.163 32.3026 329.334 40.0739 355.742C42.3245 363.391 40.9341 372.4 39.9738 380.641C38.1311 396.455 34.8453 412.11 33.2513 427.941C32.3104 437.286 41.3163 446.098 51.16 446.881C56.3648 419.48 62.2478 392.11 66.4026 364.48C67.6789 355.992 64.2903 346.783 62.9277 337.921C60.1674 319.969 57.3323 302.029 54.5266 284.084C53.6155 278.256 52.6998 272.429 51.6451 265.703C60.9622 266.645 65.2183 274.186 70.395 279.644C84.6636 294.687 92.7425 313.189 98.0086 333.012C102.307 349.191 104.578 365.233 100.934 382.189C97.8974 396.317 96.477 410.998 96.2251 425.466C95.8961 444.356 108.842 455.939 127.377 456.005C129.675 456.013 131.981 454.155 134.283 453.161C132.759 451.085 131.629 448.454 129.635 447.043C124.632 443.505 119.239 440.519 113.726 437.142C115.355 434.337 116.571 432.243 117.981 429.816C128.24 433.34 137.987 437.456 142.911 447.323C147.876 457.272 147.002 467.008 131.979 465.382C125.761 464.708 119.513 464.179 113.265 463.937C98.854 463.378 86.2287 444.409 86.9247 430.459C87.7362 414.192 89.4594 397.945 91.4301 381.768C94.0533 360.233 90.6988 339.726 82.1514 319.978C78.6892 311.979 74.7517 304.186 71.0305 296.299C69.9357 296.645 68.8409 296.992 67.7461 297.338C69.1818 307.743 70.4724 318.171 72.0936 328.547C73.742 339.097 77.1641 349.599 77.1503 360.118C77.1359 371.165 74.043 382.22 72.1557 393.247C69.9379 406.206 67.5697 419.139 65.2417 432.762M419.067 152.283C410.595 136.729 402.999 120.613 393.439 105.76C380.275 85.3057 363.001 68.3676 343.537 53.693C325.654 40.2103 305.872 30.064 285.142 22.1465C259.056 12.1829 231.587 11.1564 203.814 10.6715C172.178 10.1191 143.585 19.2945 115.587 32.0803C85.2069 45.9539 60.5269 67.378 37.3133 92.2479C41.9691 96.591 46.2039 101.53 51.3573 105.168C68.7673 117.458 84.7614 117.909 100.864 97.7225C108.835 87.7299 116.326 77.097 125.628 68.4718C151.48 44.4987 186.16 49.4455 202.077 82.7051C206.398 91.7341 207.133 100.899 200.316 109.319C194.445 116.571 188.566 123.822 182.498 130.908C172.71 142.338 158.565 144.989 148.078 129.416C146.587 127.2 144.026 125.705 140.75 122.807C142.082 178.804 176.573 216.062 221.724 217.538C221.251 211.333 220.686 204.989 220.297 198.633C219.161 180.078 224.558 162.65 229.911 145.279C232.007 138.477 237.209 135.019 244.51 135.393C253.067 135.831 261.669 135.969 270.16 136.997C289.518 139.341 303.627 155.057 302.944 174.226C302.686 181.488 301.112 189.158 298.184 195.777C291.982 209.795 289.693 223.31 299.229 236.484C318.317 262.853 323.631 292.005 318.61 323.795C314.06 352.601 303.206 378.538 283.996 400.382C278.534 406.593 270.37 412.797 262.61 414.123C246.858 416.815 230.537 416.177 214.451 416.911C213.834 415.982 213.218 415.052 212.601 414.123C216.172 409.203 218.737 402.591 223.537 399.738C231.854 394.794 241.508 392.051 250.691 388.627C258.124 385.857 265.346 383.591 268.719 374.913C279.004 348.459 284.002 321.555 280.404 292.995C278.388 276.996 272.712 264.87 256.591 259.802C254.388 259.11 250.57 259.59 249.136 261.091C241.975 268.584 235.132 276.415 228.623 284.486C223.246 291.155 217.624 296.755 208.145 294.964C201.851 293.775 195.508 292.669 189.36 290.916C179.463 288.094 169.71 284.768 159.896 281.654C160.568 285.461 161.851 287.908 163.729 289.747C175.873 301.638 190.923 308.314 206.826 313.42C214.987 316.04 222.177 315.913 228.86 309.086C234.164 303.668 240.753 299.508 246.872 294.711C247.819 296.428 249.127 297.7 249.127 298.971C249.129 315.011 249.238 331.062 248.707 347.089C248.303 359.293 239.662 365.229 229.555 369.305C224.094 371.506 218.401 373.194 212.715 374.76C195.618 379.47 178.229 383.269 161.422 388.836C147.165 393.559 142.674 400.933 150.367 414.505C155.23 423.087 161.074 431.111 166.002 439.659C171.242 448.749 176.251 454.677 189.127 455.382C209.728 456.511 230.048 456.194 250.057 452.531C274.318 448.09 297.347 439.655 319.169 427.509C356.303 406.839 385.745 378.727 406.246 341.553C428.03 302.052 438.084 260.052 433.885 214.6C431.921 193.348 426.847 173.182 419.067 152.283M288.537 190.656C293.277 179.746 297.038 168.846 287.796 158.269C279.177 148.406 267.291 145.902 255.212 144.73C244.789 143.718 240.542 146.306 237.669 155.993C232.726 172.662 227.837 189.542 233.132 207.15C241.597 209.223 246.721 203.707 247.871 195.417C248.114 193.661 247.342 191.553 248.066 190.13C248.912 188.463 250.862 186.313 252.372 186.283C254.432 186.242 257.798 187.513 258.403 189.074C262.411 199.427 254.033 214.244 242.919 216.614C237.262 217.82 231.423 218.17 224.494 219.056C227.284 220.068 229.048 220.697 230.806 221.346C240.1 224.775 249.006 230.116 253.046 238.706C256.602 246.268 261.651 250.038 268.257 253.688C281.916 261.234 289.757 273.798 290.541 288.701C292.031 317.051 292.049 345.592 281.606 372.78C277.562 383.308 272.784 393.128 260.176 396.45C251.39 398.765 242.995 402.563 232.609 406.364C252.366 408.79 267.743 405.228 279.124 390.436C291.945 373.774 300.456 354.927 305.985 334.918C310.593 318.246 312.71 300.911 309.147 283.697C305.871 267.869 298.673 253.573 289.283 240.382C283.123 231.728 280.064 221.949 281.858 211.436C283.004 204.719 285.806 198.284 288.537 190.656M238.687 253.96C238.566 253.496 238.54 252.68 238.309 252.617C216.68 246.749 194.984 241.117 173.407 235.063C158.168 230.787 144.054 224.692 134.871 210.484C127.082 198.431 118.617 186.811 110.29 175.113C109.023 173.333 106.888 172.17 105.155 170.721C104.138 172.813 102.636 174.805 102.183 177.012C99.5085 190.032 97.0778 203.102 94.6596 215.664C97.9533 218.269 101.062 220.357 103.73 222.906C113.17 231.924 122.499 241.059 131.792 250.23C140.309 258.635 148.439 267.183 160.721 270.652C174.416 274.52 187.794 279.542 201.224 284.306C206.762 286.27 212.323 287.213 216.454 282.497C224.18 273.677 231.298 264.324 238.687 253.96L238.687 253.96Z" id="Shape" fill="#FFFFFF" fill-rule="evenodd" stroke="none" />
    </g>
  </g>
</svg>